<?xml version="1.0" standalone="no"?>
<!DOCTYPE svg PUBLIC "-//W3C//DTD SVG 20010904//EN"
 "http://www.w3.org/TR/2001/REC-SVG-20010904/DTD/svg10.dtd">
<svg version="1.0" xmlns="http://www.w3.org/2000/svg"
 width="1280.000000pt" height="1280.000000pt" viewBox="0 0 1280.000000 1280.000000"
 preserveAspectRatio="xMidYMid meet">
<g transform="translate(0.000000,1280.000000) scale(0.100000,-0.100000)"
fill="#000000" stroke="none">
<path d="M6239 12795 c-3 -2 -86 -9 -184 -15 -909 -55 -1712 -268 -2506 -666
-724 -362 -1361 -849 -1908 -1459 -943 -1052 -1501 -2373 -1605 -3800 -9 -115
-20 -251 -26 -302 -13 -115 -13 -277 -1 -396 6 -51 15 -164 21 -252 47 -668
216 -1365 486 -2002 71 -169 264 -554 354 -708 289 -491 610 -907 1014 -1311
524 -524 1081 -921 1737 -1238 758 -367 1496 -559 2414 -628 574 -44 1287 26
1937 188 1717 428 3216 1599 4045 3159 101 191 239 490 267 583 11 34 -8 28
-117 -32 -245 -135 -743 -320 -1102 -410 -445 -111 -760 -158 -1326 -196 -340
-23 -941 -4 -1284 40 -213 28 -335 46 -427 64 -139 27 -177 34 -275 57 -613
138 -1182 372 -1597 657 -185 127 -427 351 -539 499 -197 260 -291 528 -287
823 1 69 2 133 1 142 -1 9 -39 63 -87 120 -110 133 -173 229 -234 353 -67 135
-116 287 -141 436 -18 106 -21 148 -16 294 13 348 111 635 307 897 231 308
559 517 940 599 90 20 134 23 310 23 174 0 220 -3 303 -22 291 -65 544 -197
751 -393 269 -255 455 -631 481 -974 3 -44 8 -95 11 -112 l5 -33 1527 0 c1772
0 3062 -10 3014 -22 l-33 -9 76 -54 c41 -30 103 -77 138 -105 34 -27 67 -50
74 -50 13 0 19 151 14 310 -10 279 -92 785 -187 1149 -107 412 -324 981 -375
981 -10 0 -55 -18 -101 -39 -107 -50 -139 -64 -220 -95 -38 -14 -98 -37 -134
-52 -253 -97 -694 -218 -1004 -275 -218 -40 -313 -55 -490 -79 -251 -34 -413
-47 -795 -65 -418 -19 -785 -9 -1245 36 -100 9 -149 15 -327 40 -164 22 -425
67 -568 99 -135 30 -209 48 -365 90 -41 11 -88 24 -105 29 -258 78 -288 89
-515 178 -471 184 -849 420 -1121 699 -134 138 -217 251 -279 378 -92 191
-109 265 -109 466 0 204 17 277 114 475 120 244 367 500 690 711 121 79 193
120 370 208 140 69 171 84 258 120 17 7 55 23 82 34 55 23 217 83 286 106 262
86 583 169 839 217 340 63 569 95 865 119 72 6 144 14 160 19 30 7 30 8 8 19
-51 28 -391 133 -581 181 -359 90 -724 148 -1067 171 -93 6 -209 15 -256 20
-87 10 -352 14 -360 5z"/>
<path d="M6283 8029 c-189 -17 -390 -85 -560 -190 -116 -72 -302 -254 -376
-369 -99 -154 -148 -270 -187 -445 -32 -143 -32 -377 0 -520 56 -249 159 -442
331 -620 188 -194 409 -315 672 -366 137 -27 354 -26 488 1 427 87 782 386
939 792 73 188 99 455 65 659 -110 659 -705 1118 -1372 1058z"/>
</g>
</svg>
